<?xml version="1.0" encoding="UTF-8"?> <svg xmlns="http://www.w3.org/2000/svg" viewBox="0 0 653.7 107.04"><defs><style>.cls-1,.cls-3{fill:#fff;}.cls-2{fill:#8dc63f;}.cls-3{font-size:30.99px;font-family:FranklinGothic-Book, Franklin Gothic Book;}</style></defs><title>SF White</title><g id="Layer_2" data-name="Layer 2"><g id="Layer_1-2" data-name="Layer 1"><path class="cls-1" d="M.81,54.19H35.68c5.66,0,5.93-4.67,5.93-6.83,0-2.43-.63-5.39-6.11-7.1L10.69,32.44C2.43,29.84,0,24.53,0,15.91,0,6.92,4.4.72,14.38.72H50.6v9.43H17.52c-3,0-5.3,1.8-5.3,6.3,0,2.78.45,5.48,5.48,7.1l23,7.27c9.17,2.88,13.12,6.75,13.12,16.63,0,9.26-3.77,16.18-13.48,16.18H.81Z"></path><path class="cls-1" d="M109.91,39.72c0,19.05-8.27,24.45-25.34,24.45s-25.34-5.4-25.34-24.45c0-18.87,8.27-24.26,25.34-24.26S109.91,20.85,109.91,39.72ZM84.57,56.08C95.35,56.08,99,51.4,99,39.72S95.35,23.55,84.57,23.55,70.1,28,70.1,39.72,73.79,56.08,84.57,56.08Z"></path><path class="cls-1" d="M116.75.72h10.51V63.63H116.75Z"></path><path class="cls-1" d="M179.56,55.54q0,8.09-8.08,8.09H154c-10.78,0-18.51-3.69-18.51-16.27V16H146V44.58c0,7.18,2.79,11,10,11h10.33a2.39,2.39,0,0,0,2.7-2.7V16h10.51Z"></path><path class="cls-1" d="M207.78,63.63c-10.78,0-17.52-3.87-17.52-15.55v-24H183.7V16h6.56V.72h10.51V16h13.58v8.08H200.77V45.92c0,7.19,3.78,9.62,11,9.62h2.61v8.09Z"></path><path class="cls-1" d="M218.48,9.71V0H229V9.71Zm0,6.29H229V63.63H218.48Z"></path><path class="cls-1" d="M286.51,39.72c0,19.05-8.26,24.45-25.34,24.45s-25.34-5.4-25.34-24.45c0-18.87,8.27-24.26,25.34-24.26S286.51,20.85,286.51,39.72ZM261.17,56.08c10.78,0,14.47-4.68,14.47-16.36S272,23.55,261.17,23.55,246.7,28,246.7,39.72,250.39,56.08,261.17,56.08Z"></path><path class="cls-1" d="M293.35,24.08q0-8.08,8.08-8.08h16.72c10.78,0,18.51,3.68,18.51,16.26V63.63H326.15V35.05c0-7.19-2.79-11-10-11h-9.61a2.39,2.39,0,0,0-2.7,2.7V63.63H293.35Z"></path><path class="cls-1" d="M481.38,56.62c0,4.58-1.44,7.55-6.47,7.55H457c-9.89,0-13.75-5.31-13.75-14.65v-33H448v33c0,5.75,1.89,10.42,9.08,10.42h16.8c1.8,0,2.88-.36,2.88-3.41v-40h4.67Z"></path><path class="cls-1" d="M491.09,24.08c0-4.58,1.44-7.54,6.47-7.54h17.52c9.89,0,13.75,5.3,13.75,14.64v33h-4.67v-33c0-5.75-1.89-10.42-9.08-10.42H498.64c-1.8,0-2.88.36-2.88,3.41v40h-4.67Z"></path><path class="cls-1" d="M557.06,64.17c-16.18,0-20.13-7.64-20.13-23.82,0-15.28,4-23.81,20.13-23.81h14.38V1.26h4.67v56c0,4-.81,6.92-6.47,6.92Zm0-43.41c-12.58,0-15.28,6.11-15.28,19.59,0,14.38,2.7,19.59,15.28,19.59h10.78c3.24,0,3.6-1.08,3.6-4V20.76Z"></path><path class="cls-1" d="M600.64,64.17c-13.12,0-16.44-9.89-16.44-23.46,0-16.09,4.31-24.71,20.4-24.71,11.77,0,20.49,4.67,20.49,18.15,0,5.48-1.44,7.82-6.83,7.82H589.05c0,8.35,1.44,18,11.59,18H624v4.23Zm17.62-26.43a2,2,0,0,0,2-2.15V35c0-11.68-5.75-14.74-15.54-14.74-10.61,0-15.64,3.86-15.64,17.52Z"></path><path class="cls-1" d="M633.18,32.89c0-10.78,5.12-16.35,15.9-16.35h3.24v4.22h-3.24C641,20.76,637.85,25,637.85,34v30.2h-4.67Z"></path><path class="cls-2" d="M437.13,40.46a23.71,23.71,0,1,1-23.71-23.72A23.71,23.71,0,0,1,437.13,40.46Z"></path><path class="cls-1" d="M361.67,9.54h33.25V0H359.77V9.7A10.13,10.13,0,0,1,361.67,9.54Z"></path><rect class="cls-1" x="359.77" y="26.72" width="24.95" height="9.54"></rect><text class="cls-3" transform="translate(391.45 96.8)"><tspan xml:space="preserve">s i m p l i f y i n g I T</tspan></text></g></g></svg> 